<?xml version="1.0" standalone="no"?><!DOCTYPE svg PUBLIC "-//W3C//DTD SVG 1.1//EN" "http://www.w3.org/Graphics/SVG/1.1/DTD/svg11.dtd"><svg t="1667011770559" class="icon" viewBox="0 0 1024 1024" version="1.1" xmlns="http://www.w3.org/2000/svg" p-id="1560" xmlns:xlink="http://www.w3.org/1999/xlink" width="200" height="200"><path d="M469.333333 885.333333h-149.333333c-36.266667 0-64-27.733333-64-64V298.666667c0-12.8 8.533333-21.333333 21.333333-21.333334s21.333333 8.533333 21.333334 21.333334v522.666666c0 12.8 8.533333 21.333333 21.333333 21.333334h149.333333c12.8 0 21.333333 8.533333 21.333334 21.333333s-8.533333 21.333333-21.333334 21.333333z" p-id="1561" fill="#06f3ff"></path><path d="M789.333333 885.333333h-32c-12.8 0-21.333333-8.533333-21.333333-21.333333s8.533333-21.333333 21.333333-21.333333H789.333333c12.8 0 21.333333-8.533333 21.333334-21.333334V234.666667c0-64-55.466667-106.666667-106.666667-106.666667-59.733333 0-106.666667 46.933333-106.666667 106.666667v85.333333H149.333333v-85.333333c0-83.2 66.133333-149.333333 149.333334-149.333334h405.333333c72.533333 0 149.333333 59.733333 149.333333 149.333334v586.666666c0 36.266667-27.733333 64-64 64zM192 277.333333h362.666667v-42.666666c0-42.666667 17.066667-78.933333 44.8-106.666667H298.666667c-59.733333 0-106.666667 46.933333-106.666667 106.666667v42.666666z" p-id="1562" fill="#06f3ff"></path><path d="M725.333333 426.666667H384c-12.8 0-21.333333-8.533333-21.333333-21.333334s8.533333-21.333333 21.333333-21.333333h341.333333c12.8 0 21.333333 8.533333 21.333334 21.333333s-8.533333 21.333333-21.333334 21.333334zM725.333333 533.333333H384c-12.8 0-21.333333-8.533333-21.333333-21.333333s8.533333-21.333333 21.333333-21.333333h341.333333c12.8 0 21.333333 8.533333 21.333334 21.333333s-8.533333 21.333333-21.333334 21.333333zM578.133333 829.866667h-6.4c-6.4-2.133333-10.666667-6.4-12.8-12.8l-10.666666-25.6-27.733334-2.133334c-6.4 0-12.8-4.266667-17.066666-8.533333-4.266667-4.266667-4.266667-12.8-4.266667-17.066667l6.4-25.6-21.333333-17.066666c-4.266667-4.266667-8.533333-10.666667-8.533334-17.066667s2.133333-12.8 8.533334-17.066667l21.333333-17.066666-6.4-25.6c-2.133333-6.4 0-12.8 4.266667-17.066667 4.266667-4.266667 10.666667-8.533333 17.066666-8.533333l27.733334-2.133334 10.666666-25.6c2.133333-6.4 6.4-10.666667 12.8-12.8 6.4-2.133333 12.8-2.133333 19.2 2.133334l23.466667 14.933333 23.466667-14.933333c2.133333-4.266667 8.533333-4.266667 14.933333-4.266667 6.4 2.133333 10.666667 6.4 12.8 12.8l10.666667 25.6 27.733333 2.133333c6.4 0 12.8 4.266667 17.066667 8.533334 4.266667 4.266667 4.266667 12.8 4.266666 17.066666l-6.4 25.6 21.333334 17.066667c4.266667 4.266667 8.533333 10.666667 8.533333 17.066667 0 6.4-2.133333 12.8-8.533333 17.066666l-21.333334 17.066667 6.4 25.6c2.133333 6.4 0 12.8-4.266666 17.066667-6.4 6.4-10.666667 10.666667-17.066667 10.666666l-27.733333 2.133334-10.666667 25.6c-2.133333 6.4-6.4 10.666667-12.8 12.8-6.4 2.133333-12.8 2.133333-19.2-2.133334l-21.333333-17.066666-23.466667 14.933333c-2.133333 2.133333-6.4 4.266667-10.666667 4.266667z m-27.733333-81.066667h14.933333c8.533333 0 14.933333 6.4 19.2 12.8l4.266667 12.8 12.8-8.533333c6.4-4.266667 17.066667-4.266667 23.466667 0l12.8 8.533333 4.266666-12.8c2.133333-8.533333 10.666667-12.8 19.2-12.8h14.933334l-4.266667-14.933333c-2.133333-8.533333 0-17.066667 6.4-21.333334l10.666667-8.533333-10.666667-8.533333c-6.4-4.266667-8.533333-14.933333-6.4-21.333334l4.266667-14.933333H661.333333c-8.533333 0-14.933333-6.4-19.2-12.8l-4.266666-12.8-12.8 8.533333c-6.4 4.266667-17.066667 4.266667-23.466667 0l-12.8-8.533333-4.266667 12.8c-2.133333 8.533333-10.666667 12.8-19.2 12.8h-14.933333l4.266667 14.933333c2.133333 8.533333 0 17.066667-6.4 21.333334l-12.8 8.533333 10.666666 8.533333c6.4 4.266667 8.533333 14.933333 6.4 21.333334l-2.133333 14.933333z" p-id="1563" fill="#06f3ff"></path><path d="M676.266667 949.333333c-4.266667 0-8.533333 0-10.666667-2.133333l-53.333333-32-53.333334 32c-6.4 4.266667-14.933333 4.266667-21.333333 0-6.4-4.266667-10.666667-10.666667-10.666667-19.2V789.333333c0-12.8 8.533333-21.333333 21.333334-21.333333s21.333333 8.533333 21.333333 21.333333v100.266667l32-19.2c6.4-4.266667 14.933333-4.266667 21.333333 0l32 19.2V789.333333c0-12.8 8.533333-21.333333 21.333334-21.333333s21.333333 8.533333 21.333333 21.333333v138.666667c0 8.533333-4.266667 14.933333-10.666667 19.2-4.266667 2.133333-6.4 2.133333-10.666666 2.133333z" p-id="1564" fill="#06f3ff"></path></svg>