<?xml version="1.0" standalone="no"?><!DOCTYPE svg PUBLIC "-//W3C//DTD SVG 1.1//EN" "http://www.w3.org/Graphics/SVG/1.1/DTD/svg11.dtd"><svg t="1667026767724" class="icon" viewBox="0 0 1024 1024" version="1.1" xmlns="http://www.w3.org/2000/svg" p-id="1581" xmlns:xlink="http://www.w3.org/1999/xlink" width="200" height="200"><path d="M400.23 536.09c-40.64-33.009-66.64-83.58-66.64-140.27 0-99.455 80.024-180.08 178.738-180.08 98.715 0 178.739 80.625 178.739 180.08 0 56.69-26 107.261-66.64 140.27 107.895 44.514 183.901 151.361 183.901 276.094 0 12.032-0.707 23.898-2.082 35.557H741.91a237.55 237.55 0 0 0 2.664-35.557c0-129.229-103.98-233.99-232.246-233.99-128.266 0-232.246 104.761-232.246 233.99 0 12.088 0.91 23.962 2.664 35.557H218.41a303.535 303.535 0 0 1-2.082-35.557c0-124.733 76.006-231.58 183.902-276.094z m112.098-24.422c63.504 0 114.985-51.866 114.985-115.847 0-63.981-51.48-115.848-114.985-115.848-63.504 0-114.985 51.867-114.985 115.848 0 63.98 51.48 115.847 114.985 115.847zM699.087 177c98.652 0 178.626 80.64 178.626 180.116 0 56.7-25.983 107.281-66.598 140.297C918.942 541.936 994.9 648.805 994.9 773.562c0 12.034-0.707 23.902-2.081 35.564h-64.296a237.79 237.79 0 0 0 2.663-35.564c0-129.255-93.915-234.036-222.1-234.036-19.087-0.526-32.51-14.895-32.51-33.27 0-18.374 12.423-32.256 32.51-33.27 63.464 0 104.912-51.877 104.912-115.87 0-63.994-51.448-115.87-114.912-115.87-4.44 0-9.626 0.533-15.557 1.602-15.46 2.785-30.252-7.491-33.037-22.953a28.445 28.445 0 0 1-0.301-2.133c-1.997-19.42 11.83-36.901 31.189-39.43 6.803-0.888 12.705-1.332 17.706-1.332z m-374.273 0c-98.653 0-178.626 80.64-178.626 180.116 0 56.7 25.983 107.281 66.598 140.297C104.958 541.936 29 648.805 29 773.562c0 12.034 0.707 23.902 2.08 35.564h64.296a237.79 237.79 0 0 1-2.662-35.564c0-129.255 93.914-234.036 222.1-234.036 15.186 1.474 32.51-14.895 32.51-33.27 0-18.374-17.324-33.256-32.51-33.27-63.464 0-104.912-51.877-104.912-115.87 0-63.994 51.448-115.87 114.912-115.87 4.44 0 9.625 0.533 15.556 1.602 15.461 2.785 30.253-7.491 33.038-22.953 0.127-0.707 0.227-1.418 0.3-2.133 1.998-19.42-11.83-36.901-31.188-39.43-6.804-0.888-12.706-1.332-17.706-1.332z" p-id="1582" fill="#06f3ff"></path></svg>