<?xml version="1.0" standalone="no"?><!DOCTYPE svg PUBLIC "-//W3C//DTD SVG 1.1//EN" "http://www.w3.org/Graphics/SVG/1.1/DTD/svg11.dtd"><svg t="1667011653043" class="icon" viewBox="0 0 1024 1024" version="1.1" xmlns="http://www.w3.org/2000/svg" p-id="845" xmlns:xlink="http://www.w3.org/1999/xlink" width="200" height="200"><path d="M739.65 609.41a24.83 24.83 0 0 0-19.65-7.48l-56.49 3.17a25.62 25.62 0 0 0-24.18 24.18l-3.18 56.48a25.74 25.74 0 0 0 7.48 19.61l107.79 107.76a25.74 25.74 0 0 0 36.31 0l59.64-59.65a25.72 25.72 0 0 0 0-36.32z m93 129.29L773 798.34a4.81 4.81 0 0 1-6.79 0L658.42 690.59a4.76 4.76 0 0 1-1.39-3.65l3.18-56.49a4.8 4.8 0 0 1 4.53-4.51l56.48-3.17h0.26a4.82 4.82 0 0 1 3.39 1.39l107.74 107.75a4.81 4.81 0 0 1 0 6.79z" p-id="846" fill="#06f3ff"></path><path d="M708.58 674.3a38.24 38.24 0 1 0 54 0c-14.39-14.44-39.58-14.44-54 0z m39.29 39.31a17.79 17.79 0 0 1-24.53 0 17.37 17.37 0 1 1 24.53 0zM219.46 607.65a20.87 20.87 0 0 0 20.88 20.75h0.12l217.71-1.25a20.88 20.88 0 0 0 15-35.26l-97.28-102.38a20.88 20.88 0 1 0-30.26 28.77l64 67.39-169.44 1a20.91 20.91 0 0 0-20.73 20.98z" p-id="847" fill="#06f3ff"></path><path d="M567 867.66H201a53.47 53.47 0 0 1-53.42-53.41V401a20.42 20.42 0 0 0-1.28-6.31l320.05-254a60.89 60.89 0 0 1 76 0l320 253.93a20.32 20.32 0 0 0-1.15 6.38v82.44a20.88 20.88 0 1 0 41.75 0v-56.71l13.71 10.87a20.87 20.87 0 1 0 25.93-32.7L568.41 108a102.48 102.48 0 0 0-127.94 0L66.25 404.9a20.88 20.88 0 0 0 26 32.7l13.66-10.84v387.49a95.28 95.28 0 0 0 95.18 95.17H567a20.88 20.88 0 0 0 0-41.76z" p-id="848" fill="#06f3ff"></path><path d="M742.14 483.18c-117.77 0-213.59 95.82-213.59 213.6s95.82 213.61 213.59 213.61 213.6-95.82 213.6-213.61-95.81-213.6-213.6-213.6z m0 380.54c-92 0-166.94-74.89-166.94-166.94s74.9-166.93 166.94-166.93 167 74.88 167 166.93-74.94 166.94-167 166.94z" p-id="849" fill="#06f3ff"></path></svg>