<?xml version="1.0" standalone="no"?><!DOCTYPE svg PUBLIC "-//W3C//DTD SVG 1.1//EN" "http://www.w3.org/Graphics/SVG/1.1/DTD/svg11.dtd"><svg t="1667011703058" class="icon" viewBox="0 0 1024 1024" version="1.1" xmlns="http://www.w3.org/2000/svg" p-id="1155" xmlns:xlink="http://www.w3.org/1999/xlink" width="200" height="200"><path d="M895.9 511.8l0.1 0.1v383.7l-0.1 0.1H128.1l-0.1-0.1V511.9l0.1-0.1h767.8m0.1-64H128c-35.2 0-64 28.8-64 64v383.9c0 35.2 28.8 64 64 64h768c35.2 0 64-28.8 64-64V511.8c0-35.2-28.8-64-64-64zM512.1 63.9c-35.3 0-64 28.7-64 64s28.7 64 64 64 64-28.7 64-64-28.7-64-64-64z" p-id="1156" fill="#06f3ff"></path><path d="M158.7 506.4c-6.4 0-12.8-2.4-17.7-7.3-9.8-9.8-9.8-25.6 0-35.4l353.5-353.5c4.7-4.7 11-7.3 17.7-7.3 6.6 0 13 2.6 17.7 7.3l353.4 353.4c9.8 9.8 9.8 25.6 0 35.4-9.8 9.8-25.6 9.8-35.4 0L512.2 163.2 176.4 499c-4.9 4.9-11.3 7.4-17.7 7.4zM195.7 776.5l26.3-32c13.8 11.7 31.7 19.8 47.1 19.8 17.2 0 25.2-6.5 25.2-16.9 0-11.2-10.7-14.8-27.3-21.8l-24.7-10.4c-20.3-8.1-39.3-25-39.3-53 0-32.5 29.1-58.5 70.2-58.5 22.4 0 46 8.6 62.9 25.5l-23.1 29c-12.7-9.6-24.7-14.8-39.8-14.8-14.3 0-23.1 5.7-23.1 16.1 0 10.7 12.2 14.8 29.4 21.6l24.2 9.6c23.9 9.6 38.2 25.7 38.2 53 0 32.2-27 60.6-73.8 60.6-25.3 0-52.3-9.3-72.4-27.8zM465.3 756.3h-57.2L397 800.7h-47.3l60.1-193.4h55.6l60.1 193.4h-48.9l-11.3-44.4z m-8.8-35.9l-4.2-16.4c-5.2-19.2-10.1-42.4-15.3-62.1h-1c-4.7 20.3-9.9 42.9-14.8 62.1l-4.2 16.4h39.5zM545.7 607.3h46.5v154.4h75.1v39H545.7V607.3zM700.9 607.3h122.7v38.5h-76.2v35.9h64.7v39h-64.7v41.1h79v39H700.9V607.3z" p-id="1157" fill="#06f3ff"></path></svg>