<?xml version="1.0" standalone="no"?><!DOCTYPE svg PUBLIC "-//W3C//DTD SVG 1.1//EN" "http://www.w3.org/Graphics/SVG/1.1/DTD/svg11.dtd"><svg t="1667026749340" class="icon" viewBox="0 0 1024 1024" version="1.1" xmlns="http://www.w3.org/2000/svg" p-id="1173" xmlns:xlink="http://www.w3.org/1999/xlink" width="200" height="200"><path d="M771.8 450.4c-11 0-20-9-20-20V173.7h-389v256.6c0 11-9 20-20 20s-20-9-20-20V153.7c0-11 9-20 20-20h429c11 0 20 9 20 20v276.6c0 11.1-9 20.1-20 20.1z" fill="#06f3ff" p-id="1174"></path><path d="M430.7 241.6m-20.5 0a20.5 20.5 0 1 0 41 0 20.5 20.5 0 1 0-41 0Z" fill="#06f3ff" p-id="1175"></path><path d="M688 260H483c-11 0-20-9-20-20s9-20 20-20h205c11 0 20 9 20 20s-9 20-20 20z" fill="#06f3ff" p-id="1176"></path><path d="M430.7 330.6m-20.5 0a20.5 20.5 0 1 0 41 0 20.5 20.5 0 1 0-41 0Z" fill="#06f3ff" p-id="1177"></path><path d="M688 348H483c-11 0-20-9-20-20s9-20 20-20h205c11 0 20 9 20 20s-9 20-20 20z" fill="#06f3ff" p-id="1178"></path><path d="M430.7 412.7m-20.5 0a20.5 20.5 0 1 0 41 0 20.5 20.5 0 1 0-41 0Z" fill="#06f3ff" p-id="1179"></path><path d="M591 430H483c-11 0-20-9-20-20s9-20 20-20h108c11 0 20 9 20 20s-9 20-20 20z" fill="#06f3ff" p-id="1180"></path><path d="M141.1 807.4c-11 0-20-9-20-20V299.8c0-33.7 27.4-61.1 61.1-61.1h155.2c11 0 20 9 20 20s-9 20-20 20H182.2c-11.6 0-21.1 9.4-21.1 21.1v487.6c0 11.1-8.9 20-20 20zM818.7 458.4c-11 0-20-9-20-20V423c0-11.6-9.4-21.1-21.1-21.1-11 0-20-9-20-20s9-20 20-20c33.7 0 61.1 27.4 61.1 61.1v15.4c0 11-9 20-20 20z" fill="#06f3ff" p-id="1181"></path><path d="M762.2 894.7h-568c-42.2 0-76.5-34.3-76.5-76.5 0-1.4 0.2-2.9 0.5-4.2l68-312.9c1.2-41.1 35-74.2 76.4-74.2h568c42.2 0 76.5 34.3 76.5 76.5 0 1.4-0.2 2.9-0.5 4.2l-68 312.9c-1.2 41.1-35 74.2-76.4 74.2z m-604.4-74.6c1 19.2 17 34.5 36.4 34.5h568c20.1 0 36.5-16.4 36.5-36.5 0-1.4 0.2-2.9 0.5-4.2l67.9-312.5c-1-19.2-17-34.5-36.4-34.5h-568c-20.1 0-36.5 16.4-36.5 36.5 0 1.4-0.2 2.9-0.5 4.2l-67.9 312.5z" fill="#06f3ff" p-id="1182"></path></svg>