<?xml version="1.0" standalone="no"?><!DOCTYPE svg PUBLIC "-//W3C//DTD SVG 1.1//EN" "http://www.w3.org/Graphics/SVG/1.1/DTD/svg11.dtd"><svg t="1667026783123" class="icon" viewBox="0 0 1024 1024" version="1.1" xmlns="http://www.w3.org/2000/svg" p-id="1780" xmlns:xlink="http://www.w3.org/1999/xlink" width="200" height="200"><path d="M975.36 102.4H665.6c-11.776-0.512-96.256-2.56-150.528 54.784-53.76-57.344-138.24-55.296-150.016-54.784H55.296c-16.896 0-30.72 13.824-30.72 30.72v660.48c0 16.896 13.824 30.72 30.72 30.72H353.28c23.04-1.024 88.576 2.56 117.248 30.208 9.216 9.216 13.824 19.968 13.824 33.792 0 16.896 13.824 30.72 30.72 30.72h1.024c16.896 0 30.72-13.824 30.72-30.72 0-13.824 4.608-24.576 13.824-33.792 29.184-27.648 94.72-31.232 117.248-30.208H975.872c16.896 0 30.72-13.824 30.72-30.72V133.12c-0.512-16.896-13.824-30.72-31.232-30.72zM351.232 762.368H86.016V163.84h281.6c3.584 0 85.504-4.608 117.248 56.32v569.856c-52.736-29.696-121.856-28.16-133.632-27.648z m593.408 0h-264.704c-11.776-0.512-80.896-2.048-133.12 26.624V218.624c31.744-59.392 113.152-55.296 116.224-54.784h281.6v598.528z" p-id="1781" fill="#06f3ff"></path></svg>