<?xml version="1.0" standalone="no"?><!DOCTYPE svg PUBLIC "-//W3C//DTD SVG 1.1//EN" "http://www.w3.org/Graphics/SVG/1.1/DTD/svg11.dtd"><svg t="1669878868359" class="icon" viewBox="0 0 1024 1024" version="1.1" xmlns="http://www.w3.org/2000/svg" p-id="1495" data-spm-anchor-id="a313x.7781069.0.i3" xmlns:xlink="http://www.w3.org/1999/xlink" width="200" height="200"><path d="M363.7 677.5c0 9.9 8 17.9 17.9 17.9h112v86.9c0 9.9 8 17.9 17.9 17.9 9.9 0 17.9-8 17.9-17.9v-86.9h111.9c9.9 0 17.9-8 17.9-17.9s-8-17.9-17.9-17.9H529.4v-55.9h111.9c9.9 0 17.9-8 17.9-17.9s-8-17.9-17.9-17.9h-76L620 460.4c4.5-8.8 1-19.6-7.8-24.1-8.9-4.5-19.6-1-24.1 7.9l-62.9 123.6h-32.4L428.5 444c-4.6-8.8-15.4-12.2-24.2-7.6-8.8 4.6-12.2 15.4-7.6 24.2l55.7 107.3h-70.8c-9.9 0-17.9 8-17.9 17.9s8 17.9 17.9 17.9h112v55.9h-112c-9.9 0-17.9 8-17.9 17.9z" fill="#06f3ff" p-id="1496"></path><path d="M889.5 625.1c-42-182.6-191.1-313.7-236.9-350.4 20-32.3 68.6-110.6 77.3-125.8 6.8-11.9 8.7-22.8 5.8-32.5-2.1-7-6.2-11.4-9.4-13.9-66-71.5-178.5-24.5-210.1-9.1-181.4-81.6-252.9 52.7-253.6 54.1-3.2 6.1-2.5 13.4 1.6 18.9l88.3 117.1C196.7 405.1 150.7 556 148.8 562.6c-2.8 9.4 2.6 19.4 12.1 22.2 9.5 2.8 19.5-2.6 22.3-12.1 0.5-1.5 47.8-155.5 204.9-271.4 3.8-2.8 6.4-7.1 7.1-11.8 0.7-4.8-0.5-9.6-3.4-13.4l-91.6-121.6c17.8-25 78.3-87.4 208.6-25.2 5.3 2.5 11.3 2.3 16.4-0.5 1.2-0.6 118.6-64.2 175.4-1.5-0.4 0.9-0.9 2.2-1.8 3.7-10.4 18.2-84.4 137.2-85.2 138.4-4.9 8-2.9 18.5 4.7 24 1.9 1.4 190.5 140.6 236.4 339.7 45 195.9-33.1 249.8-95.8 273.3-67.4 25.3-368.9 17.4-478.2 12.4-5.1-0.6-125.7-16.5-125.7-162 0-9.9-8-17.9-17.9-17.9-9.9 0-17.9 8-17.9 17.9 0 178.1 156 197.4 158.7 197.7 8.6 0.4 119.1 5.4 235.2 5.4 105.9 0 216.4-4.2 258.3-20 116.4-43.6 156.1-149.5 118.1-314.8z" fill="#06f3ff" p-id="1497"></path></svg>