<?xml version="1.0" standalone="no"?><!DOCTYPE svg PUBLIC "-//W3C//DTD SVG 1.1//EN" "http://www.w3.org/Graphics/SVG/1.1/DTD/svg11.dtd"><svg t="1669878951414" class="icon" viewBox="0 0 1024 1024" version="1.1" xmlns="http://www.w3.org/2000/svg" p-id="2128" xmlns:xlink="http://www.w3.org/1999/xlink" width="200" height="200"><path d="M267.702857 564.175238a11.946667 11.946667 0 0 1-9.99619-5.363809c-34.133333-50.468571-52.175238-109.226667-52.175238-170.422858 0-167.984762 136.777143-304.761905 304.761904-304.761904s304.761905 136.777143 304.761905 304.761904c0 34.377143-5.607619 68.266667-16.822857 100.205715-2.194286 6.339048-9.264762 9.752381-15.60381 7.558095a12.336762 12.336762 0 0 1-7.558095-15.60381c10.24-29.500952 15.60381-60.708571 15.60381-92.16 0-154.575238-125.805714-280.380952-280.380953-280.380952s-280.380952 125.805714-280.380952 280.380952c0 56.07619 16.579048 110.445714 47.786667 156.769524 3.657143 5.607619 2.194286 13.165714-3.169524 16.822857-1.950476 1.462857-4.388571 2.194286-6.826667 2.194286z" p-id="2129" fill="#06f3ff"></path><path d="M510.293333 352.548571a11.459048 11.459048 0 0 1-8.533333-3.657142l-59.245714-59.245715c-4.87619-4.87619-4.87619-12.434286 0-17.310476s12.434286-4.87619 17.310476 0l50.468571 50.468572L560.761905 272.579048c4.87619-4.87619 12.434286-4.87619 17.310476 0s4.87619 12.434286 0 17.310476l-59.245714 59.245714a12.190476 12.190476 0 0 1-8.533334 3.413333zM589.531429 383.024762h-158.232381c-6.826667 0-12.190476-5.36381-12.190477-12.190476s5.36381-12.190476 12.190477-12.190476h158.232381c6.826667 0 12.190476 5.36381 12.190476 12.190476s-5.607619 12.190476-12.190476 12.190476zM589.531429 443.733333h-158.232381c-6.826667 0-12.190476-5.36381-12.190477-12.190476s5.36381-12.190476 12.190477-12.190476h158.232381c6.826667 0 12.190476 5.36381 12.190476 12.190476s-5.607619 12.190476-12.190476 12.190476z" p-id="2130" fill="#06f3ff"></path><path d="M510.293333 507.611429c-6.826667 0-12.190476-5.36381-12.190476-12.190477v-155.062857c0-6.826667 5.36381-12.190476 12.190476-12.190476s12.190476 5.36381 12.190477 12.190476v155.062857c0 6.826667-5.36381 12.190476-12.190477 12.190477zM670.47619 531.748571c-2.681905 0-5.36381-0.975238-7.801904-2.681904a12.04419 12.04419 0 0 1-1.706667-17.066667c51.2-62.415238 58.514286-151.405714 18.041905-220.891429s-120.929524-107.76381-200.411429-94.841904a11.946667 11.946667 0 0 1-13.897143-9.996191c-0.975238-6.582857 3.413333-12.921905 9.996191-13.897143 89.478095-14.872381 180.175238 28.281905 225.523809 106.544762 45.348571 78.506667 37.059048 178.468571-20.48 248.685715-2.194286 2.681905-5.607619 4.144762-9.264762 4.144761zM372.540952 555.398095a11.215238 11.215238 0 0 1-8.045714-3.169524 216.015238 216.015238 0 0 1-44.129524-54.369523c-45.348571-78.506667-37.059048-178.468571 20.48-248.685715 4.144762-5.12 11.946667-6.095238 17.066667-1.706666 5.12 4.144762 6.095238 11.946667 1.706667 17.066666-51.2 62.415238-58.514286 151.405714-18.041905 220.891429 10.48381 18.285714 23.649524 34.377143 39.253333 48.274286 5.12 4.388571 5.607619 12.190476 0.975238 17.310476-2.438095 2.925714-5.851429 4.388571-9.264762 4.388571z" p-id="2131" fill="#06f3ff"></path><path d="M654.628571 747.52h-186.758095c-6.826667 0-12.190476-5.36381-12.190476-12.190476s5.36381-12.190476 12.190476-12.190476h186.758095c25.84381 0 37.546667-18.773333 37.546667-37.302858 0-10.727619-4.144762-21.455238-11.215238-28.769523-8.289524-8.777143-20.48-13.409524-35.352381-13.409524H512c-2.194286 0-4.388571-0.731429-6.339048-1.706667-25.84381-15.60381-165.302857-15.11619-211.139047-5.363809-17.554286 3.657143-71.192381 49.980952-103.619048 81.67619-4.87619 4.632381-12.434286 4.632381-17.310476-0.243809s-4.632381-12.434286 0.243809-17.310477c13.897143-13.653333 84.845714-81.432381 115.565715-88.015238 42.179048-9.020952 184.56381-12.921905 225.523809 6.582857h130.681905c27.306667 0 44.129524 11.459048 53.150476 20.96762 11.459048 12.190476 17.798095 28.281905 17.798095 45.59238 0 30.72-21.211429 61.68381-61.927619 61.68381z" p-id="2132" fill="#06f3ff"></path><path d="M697.295238 874.544762H334.019048c-6.826667 0-12.190476-5.36381-12.190477-12.190476s5.36381-12.190476 12.190477-12.190476h358.4c21.942857-21.455238 134.339048-130.194286 148.48-143.36 12.434286-11.459048 65.828571-98.011429 96.792381-159.20762-85.577143-36.815238-124.342857 30.47619-143.36 63.634286-5.12 9.020952-8.045714 13.897143-11.702858 16.822857-12.190476 9.508571-68.754286 36.571429-80.213333 41.935238a12.288 12.288 0 0 1-10.483809-22.186666c25.112381-11.946667 67.779048-33.158095 75.580952-39.009524 0.975238-1.219048 2.925714-4.87619 5.607619-9.752381 19.748571-34.620952 72.411429-126.293333 186.514286-68.022857 5.851429 2.925714 8.289524 10.24 5.363809 16.335238-27.550476 56.32-90.209524 161.401905-107.763809 177.493333-15.36 13.897143-150.186667 145.066667-151.649524 146.285715a11.215238 11.215238 0 0 1-8.289524 3.413333z" p-id="2133" fill="#06f3ff"></path><path d="M197.241905 823.588571a11.459048 11.459048 0 0 1-8.533334-3.657142l-34.377142-34.377143c-4.87619-4.87619-4.87619-12.434286 0-17.310476s12.434286-4.87619 17.310476 0l34.377143 34.377142c4.87619 4.87619 4.87619 12.434286 0 17.310477-2.681905 2.438095-5.607619 3.657143-8.777143 3.657142z" p-id="2134" fill="#06f3ff"></path><path d="M276.72381 989.135238a11.459048 11.459048 0 0 1-8.533334-3.657143l-206.994286-206.994285c-4.87619-4.87619-4.87619-12.434286 0-17.310477l86.308572-86.308571c4.632381-4.632381 12.678095-4.632381 17.310476 0l206.750476 206.994286c4.87619 4.87619 4.87619 12.434286 0 17.310476l-86.308571 86.308571a11.459048 11.459048 0 0 1-8.533333 3.657143z m-189.68381-218.940952l189.68381 189.683809 68.998095-68.998095-189.68381-189.68381-68.998095 68.998096z" p-id="2135" fill="#06f3ff"></path></svg>