<?xml version="1.0" standalone="no"?><!DOCTYPE svg PUBLIC "-//W3C//DTD SVG 1.1//EN" "http://www.w3.org/Graphics/SVG/1.1/DTD/svg11.dtd"><svg t="1667011750507" class="icon" viewBox="0 0 1024 1024" version="1.1" xmlns="http://www.w3.org/2000/svg" p-id="1355" xmlns:xlink="http://www.w3.org/1999/xlink" width="200" height="200"><path d="M535.861 960.148l-377.716 0c-55.094 0-99.753-44.657-99.753-99.669l0-731.238c0-55.012 44.657-99.835 99.753-99.835l617.568 0c55.012 0 99.753 44.821 99.753 99.835l0 451.369c0 8.7-7.124 15.907-15.989 15.907s-16.074-7.207-16.074-15.907l0-451.369c0-37.365-30.24-67.689-67.606-67.689l-617.65 0c-37.283 0-67.689 30.324-67.689 67.689l0 731.322c0 37.365 30.406 67.606 67.689 67.606l377.716 0c8.782 0 15.989 7.29 15.989 15.989 0 8.865-7.124 15.989-15.989 15.989zM779.441 1023.61c-102.652 0-186.247-83.514-186.247-186.247s83.596-186.247 186.247-186.247 186.164 83.514 186.164 186.247-83.514 186.247-186.164 186.247zM779.441 683.177c-85.005 0-154.101 69.263-154.101 154.185s69.098 154.185 154.101 154.185c84.922 0 154.101-69.263 154.101-154.185s-69.181-154.185-154.101-154.185zM779.524 853.185c-8.865 0-15.989-7.124-15.989-15.989l0-95.279c0-8.865 7.124-15.989 15.989-15.989 8.782 0 16.074 7.124 16.074 15.989l0 95.279c0.083 8.865-7.207 15.989-16.074 15.989zM856.741 853.352l-77.465 0c-8.782 0-15.989-7.124-15.989-15.989 0-8.7 7.207-15.989 15.989-15.989l77.465 0c8.782 0 15.989 7.29 15.989 15.989 0 8.865-7.124 15.989-15.989 15.989zM447.295 461.138c-3.397 0-6.877-1.076-9.776-3.314-6.959-5.386-8.368-15.411-2.983-22.452l161.972-211.102c5.468-7.043 15.493-8.285 22.452-2.983 6.959 5.386 8.368 15.493 2.899 22.452l-161.89 211.186c-3.148 4.143-7.954 6.213-12.676 6.213zM447.295 771.828c-8.865 0-15.989-7.29-15.989-16.156l0-305.138-158.658-206.796c-5.386-6.959-3.977-17.068 2.899-22.452 7.043-5.302 17.068-4.06 22.452 2.983l161.972 211.102c2.154 2.817 3.314 6.213 3.314 9.693l0 310.524c0 8.948-7.207 16.238-15.989 16.238zM613.243 465.281l-331.815 0c-8.865 0-16.074-7.124-16.074-15.989s7.207-16.074 16.074-16.074l331.815 0c8.782 0 16.074 7.124 16.074 16.074 0 8.782-7.29 15.989-16.074 15.989zM639.175 585.165l-383.845 0c-8.782 0-15.989-7.29-15.989-16.074 0-8.865 7.207-15.989 15.989-15.989l383.845 0c8.865 0 15.989 7.124 15.989 15.989 0.083 8.782-7.043 16.074-15.989 16.074z" p-id="1356" fill="#06f3ff"></path></svg>