<?xml version="1.0" standalone="no"?><!DOCTYPE svg PUBLIC "-//W3C//DTD SVG 1.1//EN" "http://www.w3.org/Graphics/SVG/1.1/DTD/svg11.dtd"><svg t="1667012674008" class="icon" viewBox="0 0 1024 1024" version="1.1" xmlns="http://www.w3.org/2000/svg" p-id="2221" xmlns:xlink="http://www.w3.org/1999/xlink" width="200" height="200"><path d="M928.5 619.6h1.5V323.1L706.5 99.7l-0.1-0.5H98V931h539c30.6 16 65.4 25 102.2 25 122.3 0 221.4-99.1 221.4-221.4 0-42.1-11.7-81.5-32.1-115zM150 151.1h529.4l198.5 198.5V562c-38-30.6-86.2-48.9-138.7-48.9-122.3 0-221.4 99.1-221.4 221.4 0 55.2 20.2 105.7 53.6 144.4H150V151.1z m589.2 749.5c-91.7 0-166.1-74.3-166.1-166.1 0-91.7 74.3-166.1 166.1-166.1 91.7 0 166.1 74.3 166.1 166.1s-74.4 166.1-166.1 166.1z" p-id="2222" fill="#06f3ff"></path><path d="M770.2 766.5v-30.8H833v-32h-62.8v-23.3h73.3v-33.5H711.6c2.6-4.6 5.4-8.9 8.6-12.9 1-1.1 2.1-2.4 3.3-3.8l7.6-8.6-46.4-12.2-1.7 6.9c-4.1 16.4-11 32.6-20.4 48.2-6.7 11.2-14.3 21.5-22.4 30.5-4.5 5-7 7.5-8.2 8.7l-6.1 7.7 20.4 11.7c1.2 0.8 2.8 2 4.5 3.5l4.8 4 4.5-4.3c2-1.9 4.1-4 6.1-6.1v46.3h-44.9v32H735v61.3h35v-61.3h86.8v-32h-86.6z m-35 0h-33.8v-30.8h33.8v30.8z m0-62.9h-55.4c2.3-3.2 4.6-6.6 6.8-10.1 2.3-3.5 4.8-7.9 7.6-13.2h41v23.3zM464.6 598.2v-53.7H568c7.1-6.4 14.7-12.3 22.5-17.6v-28.6H486.9l144.2-249.7h-71.7L433.8 473.9 308.1 248.7h-71.7l144.2 249.7H277.1v46.2H403v53.7H277.1v46.2H403V754h61.5V644.4h39.6c5.2-16.3 12.1-31.8 20.4-46.2h-59.9z" p-id="2223" fill="#06f3ff"></path></svg>