<?xml version="1.0" standalone="no"?><!DOCTYPE svg PUBLIC "-//W3C//DTD SVG 1.1//EN" "http://www.w3.org/Graphics/SVG/1.1/DTD/svg11.dtd"><svg t="1667012641275" class="icon" viewBox="0 0 1024 1024" version="1.1" xmlns="http://www.w3.org/2000/svg" p-id="2020" xmlns:xlink="http://www.w3.org/1999/xlink" width="200" height="200"><path d="M825.051429 705.340952c52.053333-29.988571 83.992381-85.577143 83.992381-145.554286l-0.121905-236.129524c0-59.977143-32.060952-115.44381-83.992381-145.432381L605.135238 51.2c-28.16-16.335238-59.611429-24.380952-91.184762-24.380952-31.451429 0-62.902857 8.167619-91.184762 24.380952l-219.672381 126.780952c-52.053333 29.988571-83.992381 85.577143-83.992381 145.554286l0.121905 236.129524c0 59.977143 32.060952 115.44381 83.992381 145.432381l29.013333 16.700952L144.091429 875.52 277.089524 853.333333l46.933333 124.342857 87.405714-152.137143 18.773333 10.849524c25.965714 14.994286 54.979048 22.552381 83.992381 22.552381 29.013333 0 58.026667-7.558095 83.992381-22.552381l20.23619-11.702857 91.550476 154.453333 46.08-126.780952 131.413333 20.358095L797.622857 721.066667 825.051429 705.340952zM333.04381 865.889524l-11.093333-29.500952-13.897143-36.815238-38.765714 6.460952-33.28 5.607619 37.302857-64.975238 96.670476 54.857143L333.04381 865.889524zM763.367619 804.937143l-38.887619-5.973333-13.409524 36.937143-11.580952 31.695238-38.15619-64.487619 95.451429-57.173333 37.790476 63.878095L763.367619 804.937143zM514.194286 810.910476c-21.089524 0-41.813333-5.607619-60.099048-16.091429l-18.773333-10.849524 0.121905-0.24381-38.64381-21.942857-169.569524-97.889524c-37.059048-21.333333-60.099048-61.19619-60.099048-103.984762l-0.121905-236.129524c0-42.788571 23.04-82.773333 60.099048-104.106667L446.780952 92.647619c20.358095-11.824762 43.641905-18.041905 67.169524-18.041905 23.527619 0 46.811429 6.217143 67.169524 18.041905l219.794286 126.902857c37.059048 21.333333 60.099048 61.19619 60.099048 103.984762l0.121905 236.129524c0 42.788571-23.04 82.773333-60.099048 104.106667L574.293333 794.819048C556.007619 805.302857 535.28381 810.910476 514.194286 810.910476z" p-id="2021" fill="#06f3ff"></path><path d="M787.626667 292.08381c-2.194286 0-4.388571-0.609524-6.339048-1.828571L590.384762 170.788571c-5.607619-3.535238-7.314286-10.849524-3.779048-16.457143 3.535238-5.607619 10.849524-7.314286 16.457143-3.779048L793.965714 270.019048c5.607619 3.535238 7.314286 10.849524 3.779048 16.457143C795.550476 290.133333 791.649524 292.08381 787.626667 292.08381z" p-id="2022" fill="#06f3ff"></path><path d="M624.64 431.299048 624.64 385.828571 549.546667 385.828571 619.76381 326.948571 590.506667 292.08381 514.072381 356.08381 437.638095 292.08381 408.380952 326.948571 478.598095 385.828571 403.504762 385.828571 403.504762 431.299048 491.27619 431.299048 491.27619 476.891429 413.500952 476.891429 413.500952 522.361905 491.27619 522.361905 491.27619 638.293333 536.868571 638.293333 536.868571 522.361905 614.64381 522.361905 614.64381 476.891429 536.868571 476.891429 536.868571 431.299048Z" p-id="2023" fill="#06f3ff"></path></svg>