<?xml version="1.0" standalone="no"?><!DOCTYPE svg PUBLIC "-//W3C//DTD SVG 1.1//EN" "http://www.w3.org/Graphics/SVG/1.1/DTD/svg11.dtd"><svg t="1667012681984" class="icon" viewBox="0 0 1024 1024" version="1.1" xmlns="http://www.w3.org/2000/svg" p-id="2418" xmlns:xlink="http://www.w3.org/1999/xlink" width="200" height="200"><path d="M896 832H128c-12.8 0-21.333333-8.533333-21.333333-21.333333s8.533333-21.333333 21.333333-21.333334h768c12.8 0 21.333333 8.533333 21.333333 21.333334s-8.533333 21.333333-21.333333 21.333333z" p-id="2419" fill="#06f3ff"></path><path d="M266.666667 821.333333h-85.333334c-12.8 0-21.333333-8.533333-21.333333-21.333333v-170.666667c0-12.8 8.533333-21.333333 21.333333-21.333333h85.333334c12.8 0 21.333333 8.533333 21.333333 21.333333v170.666667c0 12.8-8.533333 21.333333-21.333333 21.333333z m-64-42.666666h42.666666v-128h-42.666666v128zM458.666667 821.333333h-85.333334c-12.8 0-21.333333-8.533333-21.333333-21.333333v-256c0-12.8 8.533333-21.333333 21.333333-21.333333h85.333334c12.8 0 21.333333 8.533333 21.333333 21.333333v256c0 12.8-8.533333 21.333333-21.333333 21.333333z m-64-42.666666h42.666666v-213.333334h-42.666666v213.333334zM650.666667 821.333333h-85.333334c-12.8 0-21.333333-8.533333-21.333333-21.333333v-341.333333c0-12.8 8.533333-21.333333 21.333333-21.333334h85.333334c12.8 0 21.333333 8.533333 21.333333 21.333334v341.333333c0 12.8-8.533333 21.333333-21.333333 21.333333z m-64-42.666666h42.666666v-298.666667h-42.666666v298.666667zM842.666667 821.333333h-85.333334c-12.8 0-21.333333-8.533333-21.333333-21.333333v-426.666667c0-12.8 8.533333-21.333333 21.333333-21.333333h85.333334c12.8 0 21.333333 8.533333 21.333333 21.333333v426.666667c0 12.8-8.533333 21.333333-21.333333 21.333333z m-64-42.666666h42.666666v-384h-42.666666v384zM123.733333 558.933333c-6.4 0-12.8-2.133333-17.066666-8.533333-6.4-8.533333-4.266667-23.466667 4.266666-29.866667l130.133334-96 147.2 21.333334 138.666666-149.333334 130.133334 32 183.466666-162.133333c8.533333-8.533333 21.333333-6.4 29.866667 2.133333 8.533333 8.533333 6.4 21.333333-2.133333 29.866667l-200.533334 179.2-125.866666-32-138.666667 149.333333-151.466667-21.333333-115.2 85.333333h-12.8z" p-id="2420" fill="#06f3ff"></path><path d="M874.666667 266.666667c-12.8 0-21.333333-8.533333-21.333334-21.333334v-64h-64c-12.8 0-21.333333-8.533333-21.333333-21.333333s8.533333-21.333333 21.333333-21.333333h85.333334c12.8 0 21.333333 8.533333 21.333333 21.333333v85.333333c0 12.8-8.533333 21.333333-21.333333 21.333334z" p-id="2421" fill="#06f3ff"></path></svg>